<?xml version="1.0" encoding="utf-8"?>
<!-- Generator: Adobe Illustrator 23.0.2, SVG Export Plug-In . SVG Version: 6.00 Build 0)  -->
<svg version="1.1" id="Layer_1" xmlns="http://www.w3.org/2000/svg" xmlns:xlink="http://www.w3.org/1999/xlink" x="0px" y="0px"
	 viewBox="0 0 1715.17 1049.67" style="enable-background:new 0 0 1715.17 1049.67;" xml:space="preserve">
<style type="text/css">
	.st0{fill:#FEAD77;}
	.st1{fill:#FFFFFF;}
</style>
<g>
	<rect x="286.26" y="622.86" class="st0" width="1142.07" height="18.94"/>
	<g>
		<g>
			<g>
				<path class="st1" d="M950.99,364.98v56.04l-6.45-1.31c-6.09-1.19-12.29-1.79-18.38-1.79c-29.3,0-47.51,18.02-47.51,47.09v108.38
					h-56.99v-98.17c0-23.81,0-41.6,6.62-59.38c10.09-27.09,29.72-41.06,50.37-47.92c22.98-7.58,47.27-6.45,61.05-4.71
					c0.12,0,0.3,0,0.42,0.06c1.43,0.12,2.69,0.3,3.88,0.48C948.42,364.39,950.99,364.98,950.99,364.98z"/>
				<path class="st1" d="M1090.18,288.27l4.63,0.67v50.64l-6.33-1.1c-6.82-1.16-15.7-1.83-25.08-1.83
					c-27.64,0-33.17,8.46-33.17,22.22v7.85h49.8v53.08h-49.37v153.58h-55.82V362.41c0-31.53,6.82-49.43,23.56-61.84
					c12.9-9.62,32.26-14.3,59.17-14.3C1070.34,286.26,1081.36,286.93,1090.18,288.27z"/>
				<path class="st1" d="M1395.58,392.04c-21.67-20.86-48.43-31.43-79.52-31.43c-31.09,0-57.85,10.57-79.53,31.43
					c-21.73,20.91-32.74,47.06-32.74,77.72c0,30.67,11.02,56.82,32.74,77.73c21.68,20.86,48.44,31.43,79.53,31.43
					c31.09,0,57.85-10.57,79.52-31.43c21.73-20.9,32.75-47.05,32.75-77.73C1428.33,439.09,1417.31,412.94,1395.58,392.04z
					 M1355.39,509.94c-10.72,10.69-23.58,15.89-39.33,15.89c-16.04,0-29.04-5.21-39.63-15.8c-10.54-11.27-15.66-24.44-15.66-40.27
					c0-15.93,5.1-28.95,15.6-39.81c10.59-10.94,23.57-16.25,39.69-16.25c15.86,0,28.71,5.31,39.36,16.31
					c10.72,10.72,15.93,23.72,15.93,39.75C1371.35,485.69,1366.13,498.83,1355.39,509.94z"/>
				<g>
					<path class="st1" d="M1189.98,524.42c-2.29,0.45-4.64,0.68-7.18,0.68c-5.19,0-8.32,0-8.32-15.38V365.42h-57.9v156.85
						c0,45.98,27.69,55.63,50.92,55.63c11.34,0,19.96-1.2,25.62-3.55l3.33-1.39v-49.83L1189.98,524.42z"/>
				</g>
				<path class="st1" d="M501.71,469.46l-0.27,0.79c-11.23,33.19-35.9,50.74-71.33,50.74c-48.78,0-82.84-35.23-82.84-85.67
					c0-50.42,34.07-85.63,82.84-85.63c35.32,0,59.96,17.45,71.24,50.46l0.27,0.78h62.77l-0.31-1.41
					c-14.48-65.38-67.06-107.63-133.97-107.63c-82,0-143.84,61.66-143.84,143.42c0,81.77,61.84,143.43,143.84,143.43
					c67.03,0,119.63-42.34,134.01-107.87l0.31-1.41H501.71z"/>
			</g>
			<rect x="1116.58" y="291.16" class="st1" width="56.89" height="47.39"/>
			<path class="st1" d="M770.08,392.35c-21.68-20.86-48.43-31.43-79.52-31.43c-31.1,0-57.85,10.57-79.52,31.43
				c-21.73,20.91-32.74,47.05-32.74,77.72s11.02,56.82,32.74,77.73c21.67,20.86,48.43,31.43,79.52,31.43
				c31.09,0,57.85-10.57,79.52-31.43c21.73-20.91,32.74-47.06,32.74-77.73S791.81,413.26,770.08,392.35z M729.89,510.25
				c-10.71,10.69-23.58,15.89-39.33,15.89c-16.03,0-29.04-5.21-39.63-15.8c-10.54-11.27-15.66-24.44-15.66-40.27
				c0-15.93,5.11-28.96,15.6-39.81c10.58-10.94,23.57-16.25,39.69-16.25c15.86,0,28.72,5.31,39.36,16.31
				c10.72,10.72,15.93,23.72,15.93,39.75C745.84,486,740.63,499.14,729.89,510.25z"/>
		</g>
		<g>
			<g>
				<path class="st1" d="M286.36,764.63v-76.38h48.49v9.12H297.3v23.92h35.4v9.12h-35.4v34.22H286.36z"/>
				<path class="st1" d="M349.54,686.96h12.55v11.37h-12.55V686.96z M350.51,764.63v-54.07h10.73v54.07H350.51z"/>
				<path class="st1" d="M390.73,761.94c-4.01-2.29-7.1-5.54-9.28-9.76c-2.18-4.22-3.27-9.15-3.27-14.8c0-5.65,1.09-10.6,3.27-14.86
					c2.18-4.25,5.27-7.53,9.28-9.82c4-2.29,8.65-3.43,13.95-3.43c5.22,0,9.83,1.15,13.84,3.43c4,2.29,7.1,5.56,9.28,9.82
					c2.18,4.26,3.27,9.21,3.27,14.86c0,5.65-1.09,10.58-3.27,14.8c-2.18,4.22-5.27,7.47-9.28,9.76c-4.01,2.29-8.62,3.43-13.84,3.43
					C399.39,765.38,394.74,764.23,390.73,761.94z M416.05,751.86c2.65-3.29,3.97-8.12,3.97-14.48c0-6.22-1.34-11.01-4.02-14.38
					c-2.68-3.36-6.46-5.04-11.32-5.04c-4.93,0-8.76,1.68-11.48,5.04c-2.72,3.36-4.08,8.15-4.08,14.38c0,6.37,1.34,11.19,4.02,14.48
					c2.68,3.29,6.49,4.93,11.42,4.93C409.58,756.8,413.4,755.15,416.05,751.86z"/>
				<path class="st1" d="M444.59,758.51l3.22-7.83c5.65,4.29,12.12,6.44,19.42,6.44c3.72,0,6.54-0.63,8.48-1.88
					c1.93-1.25,2.9-3.02,2.9-5.31c0-1.93-0.66-3.45-1.98-4.56c-1.32-1.11-3.56-2.06-6.7-2.84l-9.01-2.15
					c-4.72-1-8.31-2.77-10.78-5.31c-2.47-2.54-3.7-5.7-3.7-9.49c0-4.86,1.95-8.8,5.85-11.8c3.9-3,9.06-4.51,15.5-4.51
					c3.86,0,7.53,0.61,11,1.82c3.47,1.22,6.42,2.93,8.85,5.15l-3.33,7.62c-5.22-4.15-10.73-6.22-16.52-6.22
					c-3.5,0-6.22,0.66-8.15,1.98c-1.93,1.32-2.9,3.16-2.9,5.52c0,1.86,0.61,3.36,1.82,4.51c1.21,1.15,3.15,2.04,5.79,2.68l9.23,2.25
					c5.15,1.14,8.96,2.95,11.42,5.42c2.47,2.47,3.7,5.67,3.7,9.6c0,4.86-1.95,8.71-5.85,11.53c-3.9,2.83-9.21,4.24-15.93,4.24
					C457.46,765.38,450.02,763.09,444.59,758.51z"/>
				<path class="st1" d="M584.79,737.81h-38.62c0.36,12.66,6.11,18.99,17.27,18.99c6.22,0,11.91-2.04,17.06-6.11l3.33,7.72
					c-2.43,2.15-5.52,3.85-9.28,5.1s-7.53,1.88-11.32,1.88c-8.65,0-15.45-2.48-20.38-7.46c-4.93-4.97-7.4-11.78-7.4-20.44
					c0-5.51,1.09-10.41,3.27-14.7c2.18-4.29,5.24-7.62,9.17-9.98c3.93-2.36,8.4-3.54,13.41-3.54c7.29,0,13.03,2.36,17.22,7.08
					c4.18,4.72,6.28,11.26,6.28,19.63V737.81z M551.54,720.97c-2.57,2.43-4.22,5.9-4.93,10.41h28.64
					c-0.43-4.58-1.82-8.06-4.18-10.46c-2.36-2.4-5.54-3.59-9.55-3.59C557.44,717.32,554.11,718.53,551.54,720.97z"/>
				<path class="st1" d="M643.74,761.94c-4.04-2.29-7.13-5.52-9.28-9.71c-2.15-4.18-3.22-9.06-3.22-14.64
					c0-5.58,1.13-10.51,3.38-14.8s5.42-7.62,9.49-9.98c4.08-2.36,8.83-3.54,14.27-3.54c3.79,0,7.44,0.63,10.94,1.88
					c3.5,1.25,6.33,2.95,8.48,5.1l-3.33,7.83c-5.08-4-10.19-6.01-15.34-6.01c-5.22,0-9.3,1.7-12.23,5.1
					c-2.93,3.4-4.4,8.17-4.4,14.32c0,6.15,1.46,10.89,4.4,14.21c2.93,3.33,7.01,4.99,12.23,4.99c5.29,0,10.41-2,15.34-6.01
					l3.33,7.83c-2.29,2.15-5.2,3.83-8.74,5.04s-7.24,1.82-11.1,1.82C652.52,765.38,647.78,764.23,643.74,761.94z"/>
				<path class="st1" d="M741.74,710.56v54.07h-10.73v-9.23c-1.57,3.22-3.92,5.69-7.03,7.4s-6.74,2.57-10.89,2.57
					c-4.79,0-8.99-1.14-12.6-3.43c-3.61-2.29-6.42-5.52-8.42-9.71c-2-4.18-3-9.06-3-14.64c0-5.58,1.02-10.51,3.06-14.8
					s4.88-7.62,8.53-9.98c3.65-2.36,7.79-3.54,12.44-3.54c4.15,0,7.76,0.88,10.83,2.63c3.07,1.75,5.43,4.24,7.08,7.46v-8.8H741.74z
					 M726.99,751.7c2.68-3.4,4.02-8.17,4.02-14.32c0-6.22-1.34-11.01-4.02-14.38c-2.68-3.36-6.49-5.04-11.42-5.04
					c-4.86,0-8.67,1.73-11.43,5.2c-2.75,3.47-4.13,8.28-4.13,14.43c0,6.08,1.38,10.8,4.13,14.16c2.75,3.36,6.6,5.04,11.53,5.04
					C720.53,756.8,724.3,755.1,726.99,751.7z"/>
				<path class="st1" d="M803.1,712.7c3.65,2.29,6.47,5.54,8.47,9.76c2,4.22,3,9.12,3,14.7c0,5.58-1.02,10.5-3.06,14.75
					c-2.04,4.26-4.88,7.56-8.53,9.92c-3.65,2.36-7.8,3.54-12.44,3.54c-4.15,0-7.78-0.88-10.89-2.63c-3.11-1.75-5.45-4.27-7.03-7.56
					v9.44H761.9v-78.96h10.73v33.79c1.57-3.22,3.92-5.72,7.03-7.51c3.11-1.79,6.74-2.68,10.89-2.68
					C795.27,709.27,799.45,710.42,803.1,712.7z M799.45,751.59c2.72-3.47,4.08-8.28,4.08-14.43c0-6.08-1.36-10.8-4.08-14.16
					c-2.72-3.36-6.51-5.04-11.37-5.04c-4.94,0-8.74,1.68-11.43,5.04c-2.68,3.36-4.02,8.15-4.02,14.38s1.34,11.01,4.02,14.38
					c2.68,3.36,6.49,5.04,11.43,5.04C792.94,756.8,796.73,755.06,799.45,751.59z"/>
				<path class="st1" d="M840.86,761.94c-4.01-2.29-7.1-5.54-9.28-9.76c-2.18-4.22-3.27-9.15-3.27-14.8c0-5.65,1.09-10.6,3.27-14.86
					c2.18-4.25,5.27-7.53,9.28-9.82c4-2.29,8.65-3.43,13.95-3.43c5.22,0,9.83,1.15,13.84,3.43c4,2.29,7.1,5.56,9.28,9.82
					c2.18,4.26,3.27,9.21,3.27,14.86c0,5.65-1.09,10.58-3.27,14.8c-2.18,4.22-5.27,7.47-9.28,9.76c-4.01,2.29-8.62,3.43-13.84,3.43
					C849.51,765.38,844.86,764.23,840.86,761.94z M866.18,751.86c2.64-3.29,3.97-8.12,3.97-14.48c0-6.22-1.34-11.01-4.02-14.38
					c-2.68-3.36-6.46-5.04-11.32-5.04c-4.94,0-8.76,1.68-11.48,5.04c-2.72,3.36-4.08,8.15-4.08,14.38c0,6.37,1.34,11.19,4.02,14.48
					c2.68,3.29,6.49,4.93,11.42,4.93C859.7,756.8,863.53,755.15,866.18,751.86z"/>
				<path class="st1" d="M894.71,758.51l3.22-7.83c5.65,4.29,12.12,6.44,19.42,6.44c3.72,0,6.54-0.63,8.47-1.88
					c1.93-1.25,2.9-3.02,2.9-5.31c0-1.93-0.66-3.45-1.98-4.56c-1.32-1.11-3.56-2.06-6.7-2.84l-9.01-2.15
					c-4.72-1-8.31-2.77-10.78-5.31c-2.47-2.54-3.7-5.7-3.7-9.49c0-4.86,1.95-8.8,5.85-11.8c3.9-3,9.06-4.51,15.5-4.51
					c3.86,0,7.53,0.61,11,1.82c3.47,1.22,6.42,2.93,8.85,5.15l-3.33,7.62c-5.22-4.15-10.73-6.22-16.52-6.22
					c-3.5,0-6.22,0.66-8.15,1.98c-1.93,1.32-2.9,3.16-2.9,5.52c0,1.86,0.61,3.36,1.82,4.51c1.22,1.15,3.15,2.04,5.79,2.68l9.23,2.25
					c5.15,1.14,8.96,2.95,11.43,5.42c2.47,2.47,3.7,5.67,3.7,9.6c0,4.86-1.95,8.71-5.85,11.53c-3.9,2.83-9.21,4.24-15.93,4.24
					C907.58,765.38,900.14,763.09,894.71,758.51z"/>
				<path class="st1" d="M1034.92,737.81H996.3c0.36,12.66,6.11,18.99,17.27,18.99c6.22,0,11.91-2.04,17.06-6.11l3.33,7.72
					c-2.43,2.15-5.52,3.85-9.28,5.1c-3.75,1.25-7.53,1.88-11.32,1.88c-8.65,0-15.45-2.48-20.38-7.46c-4.93-4.97-7.4-11.78-7.4-20.44
					c0-5.51,1.09-10.41,3.27-14.7c2.18-4.29,5.24-7.62,9.17-9.98c3.93-2.36,8.4-3.54,13.41-3.54c7.29,0,13.03,2.36,17.22,7.08
					c4.18,4.72,6.28,11.26,6.28,19.63V737.81z M1001.66,720.97c-2.57,2.43-4.22,5.9-4.93,10.41h28.64
					c-0.43-4.58-1.82-8.06-4.18-10.46c-2.36-2.4-5.54-3.59-9.55-3.59C1007.56,717.32,1004.24,718.53,1001.66,720.97z"/>
				<path class="st1" d="M1051.65,764.63v-78.96h10.73v78.96H1051.65z"/>
				<path class="st1" d="M1128.68,737.81h-38.62c0.36,12.66,6.11,18.99,17.27,18.99c6.22,0,11.91-2.04,17.06-6.11l3.33,7.72
					c-2.43,2.15-5.52,3.85-9.28,5.1s-7.53,1.88-11.32,1.88c-8.65,0-15.45-2.48-20.38-7.46c-4.93-4.97-7.4-11.78-7.4-20.44
					c0-5.51,1.09-10.41,3.27-14.7c2.18-4.29,5.24-7.62,9.17-9.98c3.93-2.36,8.4-3.54,13.41-3.54c7.29,0,13.03,2.36,17.22,7.08
					c4.18,4.72,6.28,11.26,6.28,19.63V737.81z M1095.42,720.97c-2.57,2.43-4.22,5.9-4.93,10.41h28.64
					c-0.43-4.58-1.82-8.06-4.18-10.46c-2.36-2.4-5.54-3.59-9.55-3.59C1101.32,717.32,1097.99,718.53,1095.42,720.97z
					 M1108.72,703.59h-7.19l10.73-21.99h11.69L1108.72,703.59z"/>
				<path class="st1" d="M1158.93,718.93v27.14c0,3.72,0.8,6.35,2.41,7.88c1.61,1.54,3.84,2.31,6.71,2.31
					c1.86,0,3.75-0.28,5.69-0.86v8.8c-2.36,0.79-5.04,1.18-8.05,1.18c-5.58,0-9.91-1.57-12.98-4.72c-3.08-3.15-4.61-7.72-4.61-13.73
					v-28h-10.51v-8.37h10.51v-13.52l10.83-3.75v17.27h14.91v8.37H1158.93z"/>
				<path class="st1" d="M1220.18,710.02l-0.21,9.87c-1.93-0.71-4.04-1.07-6.33-1.07c-4.93,0-8.64,1.49-11.1,4.45
					c-2.47,2.97-3.7,6.7-3.7,11.21v30.14h-10.73v-38.83c0-5.65-0.29-10.73-0.86-15.23h10.08l0.97,9.76
					c1.43-3.58,3.65-6.31,6.65-8.21c3-1.89,6.36-2.84,10.08-2.84C1216.68,709.27,1218.39,709.52,1220.18,710.02z"/>
				<path class="st1" d="M1231.77,686.96h12.55v11.37h-12.55V686.96z M1232.73,764.63v-54.07h10.73v54.07H1232.73z"/>
				<path class="st1" d="M1272.91,761.94c-4.04-2.29-7.13-5.52-9.28-9.71c-2.15-4.18-3.22-9.06-3.22-14.64
					c0-5.58,1.13-10.51,3.38-14.8s5.42-7.62,9.49-9.98c4.08-2.36,8.83-3.54,14.27-3.54c3.79,0,7.44,0.63,10.94,1.88
					c3.5,1.25,6.33,2.95,8.48,5.1l-3.33,7.83c-5.08-4-10.19-6.01-15.34-6.01c-5.22,0-9.3,1.7-12.23,5.1
					c-2.93,3.4-4.4,8.17-4.4,14.32c0,6.15,1.46,10.89,4.4,14.21c2.93,3.33,7.01,4.99,12.23,4.99c5.29,0,10.41-2,15.34-6.01
					l3.33,7.83c-2.29,2.15-5.2,3.83-8.74,5.04s-7.24,1.82-11.1,1.82C1281.68,765.38,1276.95,764.23,1272.91,761.94z"/>
				<path class="st1" d="M1330.78,761.94c-4.01-2.29-7.1-5.54-9.28-9.76c-2.18-4.22-3.27-9.15-3.27-14.8
					c0-5.65,1.09-10.6,3.27-14.86c2.18-4.25,5.27-7.53,9.28-9.82c4-2.29,8.65-3.43,13.95-3.43c5.22,0,9.83,1.15,13.84,3.43
					c4,2.29,7.1,5.56,9.28,9.82c2.18,4.26,3.27,9.21,3.27,14.86c0,5.65-1.09,10.58-3.27,14.8c-2.18,4.22-5.27,7.47-9.28,9.76
					c-4.01,2.29-8.62,3.43-13.84,3.43C1339.43,765.38,1334.78,764.23,1330.78,761.94z M1356.1,751.86
					c2.64-3.29,3.97-8.12,3.97-14.48c0-6.22-1.34-11.01-4.02-14.38c-2.68-3.36-6.46-5.04-11.32-5.04c-4.94,0-8.76,1.68-11.48,5.04
					c-2.72,3.36-4.08,8.15-4.08,14.38c0,6.37,1.34,11.19,4.02,14.48c2.68,3.29,6.49,4.93,11.42,4.93
					C1349.62,756.8,1353.45,755.15,1356.1,751.86z"/>
				<path class="st1" d="M1384.63,758.51l3.22-7.83c5.65,4.29,12.12,6.44,19.42,6.44c3.72,0,6.54-0.63,8.47-1.88
					c1.93-1.25,2.9-3.02,2.9-5.31c0-1.93-0.66-3.45-1.98-4.56c-1.32-1.11-3.56-2.06-6.7-2.84l-9.01-2.15
					c-4.72-1-8.31-2.77-10.78-5.31c-2.47-2.54-3.7-5.7-3.7-9.49c0-4.86,1.95-8.8,5.85-11.8c3.9-3,9.06-4.51,15.5-4.51
					c3.86,0,7.53,0.61,11,1.82c3.47,1.22,6.42,2.93,8.85,5.15l-3.33,7.62c-5.22-4.15-10.73-6.22-16.52-6.22
					c-3.5,0-6.22,0.66-8.15,1.98c-1.93,1.32-2.9,3.16-2.9,5.52c0,1.86,0.61,3.36,1.82,4.51c1.22,1.15,3.15,2.04,5.79,2.68l9.23,2.25
					c5.15,1.14,8.96,2.95,11.43,5.42c2.47,2.47,3.7,5.67,3.7,9.6c0,4.86-1.95,8.71-5.85,11.53c-3.9,2.83-9.21,4.24-15.93,4.24
					C1397.5,765.38,1390.07,763.09,1384.63,758.51z"/>
			</g>
		</g>
	</g>
</g>
</svg>
